<svg width="512" height="512" viewBox="0 0 512 512" fill="none" xmlns="http://www.w3.org/2000/svg" xmlns:xlink="http://www.w3.org/1999/xlink" class=""><rect id="_r_s_" width="512" height="512" x="0" y="0" rx="128" fill="url(#_r_t_)" stroke="#FFFFFF" stroke-width="0" stroke-opacity="100%" paint-order="stroke"></rect><clipPath id="clip"><use xlink:href="#_r_s_"></use></clipPath><defs><linearGradient id="_r_t_" gradientUnits="userSpaceOnUse" gradientTransform="rotate(180)" style="transform-origin: center center;"><stop stop-color="#FC466B"></stop><stop offset="1" stop-color="#3F5EFB"></stop></linearGradient><radialGradient id="_r_u_" cx="0" cy="0" r="1" gradientUnits="userSpaceOnUse" gradientTransform="translate(256) rotate(90) scale(512)"><stop stop-color="white"></stop><stop offset="1" stop-color="white" stop-opacity="0"></stop></radialGradient></defs><svg xmlns="http://www.w3.org/2000/svg" fill="none" viewBox="0 0 16 16" width="352" height="352" x="80" y="80" alignment-baseline="middle" style="color: rgb(255, 255, 255); width: 352px; height: 352px;"><path fill="currentColor" fill-rule="evenodd" d="M15.6 6.713c-.537-.313-1.25-.35-1.85-.175-.075-.65-.5-1.213-1-1.613l-.2-.162-.175.2c-.337.387-.437 1.037-.387 1.537.037.363.15.738.375 1.038-.054.03-.109.065-.164.099a2.087 2.087 0 0 1-.374.2c-.33.119-.693.236-1.048.25v.004H.223L.2 8.263c-.062.8.038 1.575.375 2.312l.138.275.012.025c.988 1.675 2.713 2.375 4.6 2.375 3.65 0 6.663-1.637 8.038-5.075.925.05 1.875-.225 2.325-1.112l.112-.225-.2-.125ZM1.625 7.59h8.25V6.325H8.25V3.2H6.375v1.5H3.25v1.625H1.625v1.266Zm3.513 3.01a.39.39 0 0 1-.388.387.39.39 0 0 1-.387-.388.39.39 0 0 1 .387-.387c.213.012.388.175.388.387ZM8 5.332V6.45 5.075v.258Zm0-.508V3.45v1.375Zm-2.662 8.15c-1.975-.012-3.038-.675-3.913-1.55l.04.002c.248.012.484.023.698.023.2 0 .4 0 .587-.012a5.74 5.74 0 0 0 1.263-.188c.287.663.812 1.275 1.75 1.725h-.425Z" clip-rule="evenodd"></path></svg></svg>